HIERARCHY
ROOT Hips
{
	OFFSET 0.00000 0.00000 0.00000
	CHANNELS 6 Xposition Yposition Zposition Zrotation Yrotation Xrotation 
	JOINT LHipJoint
	{
		OFFSET 0 0 0
		CHANNELS 3 Zrotation Yrotation Xrotation
		JOINT LeftUpLeg
		{
			OFFSET 1.28858 -1.83292 1.03970
			CHANNELS 3 Zrotation Yrotation Xrotation
			JOINT LeftLeg
			{
				OFFSET 2.47846 -6.80952 0.00000
				CHANNELS 3 Zrotation Yrotation Xrotation
				JOINT LeftFoot
				{
					OFFSET 2.75274 -7.56311 0.00000
					CHANNELS 3 Zrotation Yrotation Xrotation
					JOINT LeftToeBase
					{
						OFFSET 0.12848 -0.35301 1.68223
						CHANNELS 3 Zrotation Yrotation Xrotation
						End Site
						{
							OFFSET 0.00000 -0.00000 0.87311
						}
					}
				}
			}
		}
	}
	JOINT RHipJoint
	{
		OFFSET 0 0 0
		CHANNELS 3 Zrotation Yrotation Xrotation
		JOINT RightUpLeg
		{
			OFFSET -1.31183 -1.83292 1.03970
			CHANNELS 3 Zrotation Yrotation Xrotation
			JOINT RightLeg
			{
				OFFSET -2.44740 -6.72417 0.00000
				CHANNELS 3 Zrotation Yrotation Xrotation
				JOINT RightFoot
				{
					OFFSET -2.67343 -7.34519 0.00000
					CHANNELS 3 Zrotation Yrotation Xrotation
					JOINT RightToeBase
					{
						OFFSET -0.16914 -0.46471 1.77626
						CHANNELS 3 Zrotation Yrotation Xrotation
						End Site
						{
							OFFSET -0.00000 -0.00000 0.92777
						}
					}
				}
			}
		}
	}
	JOINT LowerBack
	{
		OFFSET 0 0 0
		CHANNELS 3 Zrotation Yrotation Xrotation
		JOINT Spine
		{
			OFFSET 0.01249 2.14252 0.03842
			CHANNELS 3 Zrotation Yrotation Xrotation
			JOINT Spine1
			{
				OFFSET -0.02957 2.14199 -0.03751
				CHANNELS 3 Zrotation Yrotation Xrotation
				JOINT Neck
				{
					OFFSET 0 0 0
					CHANNELS 3 Zrotation Yrotation Xrotation
					JOINT Neck1
					{
						OFFSET -0.01678 1.65709 -0.05476
						CHANNELS 3 Zrotation Yrotation Xrotation
						JOINT Head
						{
							OFFSET 0.07912 1.58331 -0.11843
							CHANNELS 3 Zrotation Yrotation Xrotation
							End Site
							{
								OFFSET 0.03298 1.73940 -0.04271
							}
						}
					}
				}
				JOINT LeftShoulder
				{
					OFFSET 0 0 0
					CHANNELS 3 Zrotation Yrotation Xrotation
					JOINT LeftArm
					{
						OFFSET 3.39556 1.16496 0.08673
						CHANNELS 3 Zrotation Yrotation Xrotation
						JOINT LeftForeArm
						{
							OFFSET 5.23910 -0.00000 -0.00000
							CHANNELS 3 Zrotation Yrotation Xrotation
							JOINT LeftHand
							{
								OFFSET 3.31467 -0.00000 0.00000
								CHANNELS 3 Zrotation Yrotation Xrotation
								JOINT LeftFingerBase
								{
									OFFSET 0 0 0
									CHANNELS 3 Zrotation Yrotation Xrotation
									JOINT LeftHandIndex1
									{
										OFFSET 0.96590 -0.00000 0.00000
										CHANNELS 3 Zrotation Yrotation Xrotation
										End Site
										{
											OFFSET 0.77873 -0.00000 0.00000
										}
									}
								}
								JOINT LThumb
								{
									OFFSET 0 0 0
									CHANNELS 3 Zrotation Yrotation Xrotation
									End Site
									{
										OFFSET 0.79062 -0.00000 0.79062
									}
								}
							}
						}
					}
				}
				JOINT RightShoulder
				{
					OFFSET 0 0 0
					CHANNELS 3 Zrotation Yrotation Xrotation
					JOINT RightArm
					{
						OFFSET -3.27193 1.31331 0.33940
						CHANNELS 3 Zrotation Yrotation Xrotation
						JOINT RightForeArm
						{
							OFFSET -5.30252 -0.00000 0.00000
							CHANNELS 3 Zrotation Yrotation Xrotation
							JOINT RightHand
							{
								OFFSET -3.67875 -0.00000 0.00000
								CHANNELS 3 Zrotation Yrotation Xrotation
								JOINT RightFingerBase
								{
									OFFSET 0 0 0
									CHANNELS 3 Zrotation Yrotation Xrotation
									JOINT RightHandIndex1
									{
										OFFSET -0.59481 -0.00000 0.00000
										CHANNELS 3 Zrotation Yrotation Xrotation
										End Site
										{
											OFFSET -0.47955 -0.00000 0.00000
										}
									}
								}
								JOINT RThumb
								{
									OFFSET 0 0 0
									CHANNELS 3 Zrotation Yrotation Xrotation
									End Site
									{
										OFFSET -0.48687 -0.00000 0.48687
									}
								}
							}
						}
					}
				}
			}
		}
	}
}
MOTION
Frames: 5
Frame Time: .0083333
11.0576 17.9678 -29.9159 0.1748 -69.8117 2.7839 0.0000 0.0000 0.0000 9.2180 6.2586 -18.8898 1.1577 6.8310 19.2156 -0.9164 21.0588 -21.6956 7.3198 15.5954 50.0739 0.0000 0.0000 0.0000 12.9262 2.1253 13.2126 -0.0050 -0.4552 1.2507 -3.4857 -20.5296 -46.5806 -0.1353 -2.3710 6.5322 3.9887 0.7652 0.4826 -3.4263 0.9981 -1.9531 -5.8189 0.3841 -2.1568 6.0626 12.3080 -3.4310 -10.9388 17.0002 6.9830 -3.3086 8.1311 4.1098 0.0000 0.0000 0.0000 8.0982 -11.4930 -10.9213 11.4803 -19.0208 -1.9296 -0.0000 0.0000 -10.2539 19.7049 -7.3799 -2.6339 -7.1250 0.0000 -0.0000 -5.1781 22.1574 2.8541 0.0000 0.0000 0.0000 8.5875 -5.1764 -49.4626 -9.8944 16.5743 -1.4447 0.0000 0.0000 12.5961 -24.4238 -48.8346 18.8739 7.1250 -0.0000 -0.0000 41.6254 -78.9216 -33.6969
11.0442 17.9443 -29.8474 -1.3363 -69.3288 4.2311 0.0000 0.0000 0.0000 9.2586 6.6655 -19.7761 1.3317 7.3075 20.6297 -0.5789 19.2794 -21.9814 7.2470 15.5364 49.8026 0.0000 0.0000 0.0000 13.0034 1.0784 12.6288 -0.0109 -0.6743 1.8530 -3.3371 -20.3790 -45.8901 -0.0829 -1.8577 5.1127 3.8381 0.6038 0.5886 -3.3465 0.7856 -1.8817 -5.6452 0.2827 -2.1726 4.7931 12.5239 -3.4514 -10.3239 17.2723 6.7146 -2.9437 8.2644 3.8916 0.0000 -0.0000 0.0000 8.0339 -10.6584 -9.3492 11.6306 -19.2484 -1.9788 -0.0000 0.0000 -11.9685 19.7429 -6.9329 -2.4806 -7.1250 0.0000 -0.0000 -5.1531 22.6274 2.7848 0.0000 -0.0000 0.0000 7.6437 -4.5019 -50.1163 -9.9252 16.6225 -1.4535 0.0000 0.0000 12.9091 -23.9808 -49.0413 18.5685 7.1250 -0.0000 -0.0000 42.9332 -78.8565 -34.7584
11.0324 17.9203 -29.7773 -2.8897 -68.7661 5.7589 0.0000 0.0000 0.0000 9.4040 6.9373 -20.7019 1.5054 7.7494 21.9554 -0.5557 18.6422 -21.0720 6.5487 14.9398 47.1460 0.0000 0.0000 0.0000 13.1895 0.3309 12.1510 -0.0191 -0.8915 2.4504 -3.4177 -19.7934 -45.7696 -0.0944 -1.9816 5.4549 3.7732 0.5619 0.6602 -3.4260 0.7284 -1.8334 -5.6911 0.2553 -2.1700 5.2435 12.7459 -3.7718 -10.6989 17.5916 6.8855 -3.0574 8.3983 4.0941 0.0000 -0.0000 0.0000 8.1846 -10.4310 -8.8440 11.7036 -19.3587 -2.0030 -0.0000 0.0000 -12.5853 19.8761 -6.5566 -2.3638 -7.1250 0.0000 -0.0000 -5.0585 23.0188 2.6878 0.0000 -0.0000 0.0000 7.1549 -5.4043 -46.6579 -10.3289 17.2523 -1.5711 0.0000 0.0000 8.9226 -24.1662 -49.2845 18.7833 7.1250 -0.0000 -0.0000 43.8158 -79.0755 -35.6869
11.0196 17.8962 -29.7054 -4.1828 -68.2324 7.0896 0.0000 0.0000 0.0000 9.4282 7.3195 -21.7019 1.6856 8.1781 23.2562 0.1367 15.4863 -23.3102 7.2469 15.5363 49.8019 0.0000 0.0000 0.0000 13.2834 -0.5028 11.5649 -0.0304 -1.1263 3.0965 -3.3821 -19.3848 -45.3265 -0.0605 -1.5867 4.3649 3.5967 0.5633 0.6871 -3.4933 0.7256 -1.8054 -5.6607 0.2569 -2.1574 4.7662 12.8342 -3.9037 -10.4349 17.7055 6.8629 -2.9004 8.4485 4.0520 -0.0000 -0.0000 0.0000 8.1241 -10.6699 -10.1478 11.5705 -19.1574 -1.9590 -0.0000 0.0000 -11.2538 19.9761 -6.7077 -2.4312 -7.1250 0.0000 -0.0000 -4.9837 22.8544 2.6666 -0.0000 -0.0000 0.0000 6.4815 -4.7248 -48.2677 -10.2919 17.1949 -1.5601 0.0000 0.0000 10.3253 -24.5666 -49.0682 19.0527 7.1250 -0.0000 -0.0000 42.4923 -79.1208 -34.5899
11.0077 17.8705 -29.6328 -5.3801 -67.7186 8.3006 0.0000 0.0000 0.0000 9.3944 7.7601 -22.7288 1.8817 8.6152 24.5988 0.5462 13.0895 -24.1465 7.2848 15.5671 49.9434 0.0000 0.0000 0.0000 13.3780 -1.3802 10.9402 -0.0462 -1.3872 3.8148 -3.2885 -19.1158 -44.7506 -0.0242 -1.0052 2.7631 3.4147 0.6792 0.7927 -3.6467 0.8741 -1.8105 -5.7230 0.3309 -2.2038 4.7350 12.7213 -3.6950 -10.3513 17.5238 6.6039 -2.9102 8.3788 3.9148 -0.0000 0.0000 0.0000 8.2248 -11.2592 -11.2926 11.4295 -18.9436 -1.9130 -0.0000 0.0000 -10.0051 20.1061 -6.8681 -2.5066 -7.1250 0.0000 -0.0000 -4.8872 22.6785 2.6343 -0.0000 0.0000 0.0000 5.9584 -4.7830 -48.4887 -10.3761 17.3258 -1.5851 0.0000 0.0000 10.4985 -25.0302 -49.1302 19.4485 7.1250 -0.0000 -0.0000 42.3221 -79.3551 -34.6266
